<svg xmlns="http://www.w3.org/2000/svg" viewBox="0 0 24 24" fill="none" stroke="#0077C2" stroke-width="1.8" stroke-linecap="round" stroke-linejoin="round">
  <path d="M14 2H6a3 3 0 0 0-3 3v14a3 3 0 0 0 3 3h12a3 3 0 0 0 3-3V8z" fill="#E8F3FD" stroke="none"/>
  <path d="M14 2H6a3 3 0 0 0-3 3v14a3 3 0 0 0 3 3h12a3 3 0 0 0 3-3V8z"/>
  <polyline points="14 2 14 8 20 8"/>
  <path d="M12 12.5C12 11 13.5 10 13.5 8.5a1.5 1.5 0 0 0-3 0"/>
  <circle cx="12" cy="16.5" r="1.5" fill="#0077C2" stroke="none"/>
</svg>
